<svg xmlns="http://www.w3.org/2000/svg" xmlns:xlink="http://www.w3.org/1999/xlink" width="40" zoomAndPan="magnify" viewBox="0 0 30 30.000001" height="40" preserveAspectRatio="xMidYMid meet" version="1.0"><defs><clipPath id="07a6d6980f"><path d="M 9.308594 8.710938 L 20 8.710938 L 20 20.324219 L 9.308594 20.324219 Z M 9.308594 8.710938 " clip-rule="nonzero"/></clipPath><clipPath id="3f87038d6f"><path d="M 10 8.710938 L 20.921875 8.710938 L 20.921875 20.324219 L 10 20.324219 Z M 10 8.710938 " clip-rule="nonzero"/></clipPath></defs><g clip-path="url(#07a6d6980f)"><path fill="#0d887d" d="M 9.308594 8.957031 L 19.082031 14.589844 L 9.308594 20.078125 L 11.542969 14.519531 L 9.308594 8.957031 " fill-opacity="1" fill-rule="nonzero"/></g><g clip-path="url(#3f87038d6f)"><path fill="#0d887d" d="M 10.773438 9.171875 C 11.453125 9.558594 12.128906 9.949219 12.804688 10.339844 C 14.175781 11.128906 15.546875 11.917969 16.917969 12.707031 C 18 13.332031 19.078125 13.953125 20.160156 14.574219 C 20.289062 14.652344 20.417969 14.726562 20.550781 14.800781 L 20.550781 14.378906 C 19.867188 14.761719 19.183594 15.144531 18.5 15.53125 C 17.117188 16.304688 15.738281 17.082031 14.359375 17.855469 C 13.28125 18.460938 12.207031 19.0625 11.132812 19.667969 C 11.015625 19.734375 10.894531 19.800781 10.773438 19.867188 C 10.898438 19.960938 11.019531 20.054688 11.140625 20.144531 C 11.566406 19.09375 11.988281 18.042969 12.410156 16.992188 C 12.667969 16.351562 12.921875 15.710938 13.179688 15.074219 C 13.242188 14.921875 13.300781 14.769531 13.363281 14.621094 C 13.40625 14.515625 13.371094 14.4375 13.332031 14.34375 C 12.832031 13.101562 12.335938 11.859375 11.835938 10.617188 C 11.605469 10.042969 11.375 9.46875 11.140625 8.894531 C 11.09375 8.769531 10.976562 8.683594 10.835938 8.722656 C 10.714844 8.753906 10.609375 8.898438 10.660156 9.023438 C 11.082031 10.074219 11.503906 11.125 11.929688 12.179688 C 12.25 12.980469 12.574219 13.78125 12.894531 14.585938 L 12.894531 14.453125 C 12.472656 15.503906 12.050781 16.558594 11.628906 17.609375 C 11.304688 18.410156 10.984375 19.210938 10.660156 20.015625 C 10.578125 20.222656 10.851562 20.390625 11.027344 20.289062 C 11.710938 19.90625 12.394531 19.523438 13.078125 19.140625 C 14.457031 18.363281 15.839844 17.589844 17.21875 16.8125 C 18.292969 16.210938 19.367188 15.605469 20.441406 15.003906 C 20.5625 14.933594 20.683594 14.867188 20.800781 14.800781 C 20.964844 14.710938 20.960938 14.472656 20.800781 14.378906 C 20.125 13.988281 19.449219 13.597656 18.773438 13.210938 C 17.402344 12.417969 16.03125 11.628906 14.660156 10.839844 C 13.578125 10.21875 12.496094 9.59375 11.417969 8.972656 C 11.289062 8.898438 11.15625 8.824219 11.027344 8.746094 C 10.75 8.585938 10.5 9.011719 10.773438 9.171875 " fill-opacity="1" fill-rule="nonzero"/></g></svg>